<svg width="13" height="13" viewBox="0 0 13 13" fill="none" xmlns="http://www.w3.org/2000/svg">
<path d="M6.00073 5.79995C5.21406 5.79995 4.55073 5.52995 4.01073 4.98995C3.47073 4.44995 3.20073 3.78662 3.20073 2.99995C3.20073 2.21328 3.47073 1.54995 4.01073 1.00995C4.55073 0.469951 5.21406 0.199951 6.00073 0.199951C6.78739 0.199951 7.45073 0.469951 7.99073 1.00995C8.53073 1.54995 8.80073 2.21328 8.80073 2.99995C8.80073 3.78662 8.53073 4.44995 7.99073 4.98995C7.45073 5.52995 6.78739 5.79995 6.00073 5.79995Z" fill="#2F2E41"/>
<path d="M1.08032 10.131C2.03679 8.36059 3.98849 7.39995 6.00073 7.39995V7.39995V7.39995C8.10078 7.39995 10.1778 8.4005 11.1498 10.262C11.7497 11.4108 12.0908 12.5692 12.1602 13H0C0.0719994 12.5528 0.437056 11.3216 1.08032 10.131Z" fill="#2F2E41"/>
</svg>
