<svg width="16" height="16" viewBox="0 0 16 16" fill="none" xmlns="http://www.w3.org/2000/svg">
<path fill-rule="evenodd" clip-rule="evenodd" d="M15.7071 2.30086C15.8946 2.49374 16 2.75521 16 3.02783C16 3.30044 15.8946 3.5619 15.7071 3.7548L6.0248 13.6992C5.83699 13.8918 5.58242 14 5.31699 14C5.05156 14 4.79698 13.8918 4.60918 13.6992L0.26883 9.24136C0.0919037 9.04634 -0.00441206 8.78842 0.000155324 8.5219C0.00473606 8.25539 0.109853 8.00111 0.293376 7.81262C0.476886 7.62414 0.724473 7.51618 0.983959 7.51148C1.24345 7.50677 1.49457 7.60571 1.68445 7.78742L5.31699 11.5183L14.2915 2.30086C14.4793 2.10821 14.7338 2 14.9993 2C15.2647 2 15.5194 2.10821 15.7071 2.30086Z" fill="#2F2E41"/>
</svg>
