<svg width="16" height="16" viewBox="0 0 16 16" fill="none" xmlns="http://www.w3.org/2000/svg">
<g clip-path="url(#clip0_127_6561)">
<path fill-rule="evenodd" clip-rule="evenodd" d="M8.23117 15.5567C7.79524 15.9926 7.08844 15.9926 6.65251 15.5567L0.326959 9.23112C-0.108986 8.79519 -0.108986 8.08839 0.326959 7.65246L6.65251 1.32691C7.08844 0.890966 7.79524 0.890966 8.23117 1.32691C8.6671 1.76286 8.6671 2.46954 8.23117 2.90548L3.81125 7.32551L14.8837 7.32551C15.5002 7.32551 16 7.82529 16 8.44179C16 9.05829 15.5002 9.55807 14.8837 9.55807L3.81125 9.55807L8.23117 13.9781C8.6671 14.414 8.6671 15.1208 8.23117 15.5567Z" fill="#2F2E41"/>
</g>
<defs>
<clipPath id="clip0_127_6561">
<rect width="16" height="16" fill="white"/>
</clipPath>
</defs>
</svg>
